<?xml version="1.0" encoding="UTF-8"?>
<svg width="26px" height="19px" viewBox="0 0 26 19" version="1.1" xmlns="http://www.w3.org/2000/svg" xmlns:xlink="http://www.w3.org/1999/xlink">
    <g id="Site" stroke="none" stroke-width="1" fill="none" fill-rule="evenodd">
        <g id="Panelista-site-mobile-scrolled" transform="translate(-321.000000, -19.000000)" fill="#1f9da3">
            <g id="Group-2">
                <g id="Group" transform="translate(321.000000, 19.000000)">
                    <path d="M24.5,16 C25.3284271,16 26,16.6715729 26,17.5 C26,18.3284271 25.3284271,19 24.5,19 L1.5,19 C0.671572875,19 1.01453063e-16,18.3284271 0,17.5 C-1.01453063e-16,16.6715729 0.671572875,16 1.5,16 L24.5,16 Z M24.5,8 C25.3284271,8 26,8.67157288 26,9.5 C26,10.3284271 25.3284271,11 24.5,11 L1.5,11 C0.671572875,11 1.01453063e-16,10.3284271 0,9.5 C-1.01453063e-16,8.67157288 0.671572875,8 1.5,8 L24.5,8 Z M24.5,0 C25.3284271,-1.52179594e-16 26,0.671572875 26,1.5 C26,2.32842712 25.3284271,3 24.5,3 L1.5,3 C0.671572875,3 1.01453063e-16,2.32842712 0,1.5 C-1.01453063e-16,0.671572875 0.671572875,1.52179594e-16 1.5,0 L24.5,0 Z" id="Combined-Shape"></path>
                </g>
            </g>
        </g>
    </g>
</svg>